# xmcd
#
# Track frame offsets:
#	150
#	13177
#	30285
#	53830
#	73575
#	97472
#	132142
#	151720
#	174320
#	198087
#	224282
#	263510
#	283135
#	310982
#
# Disc length: 4378 seconds
#
# Revision: 1
# Processed by: cddbd v1.5.1PL0 Copyright (c) Steve Scherf et al.
# Submitted via: CDex 1.50Beta5
#
DISCID=be11180e
DTITLE=Various Artist - ニュー・サウンズ・イン・ブラス なつかしコレクション 3
DYEAR=1900
DGENRE=
TTITLE0=東京佼成ウィンド・オーケストラ/黒いジャガーのテーマ
TTITLE1=・フェスティバル・シンフォニック・バンド/ゴッドファーザー愛のテーマ
TTITLE2=・フェスティバル・シンフォニック・バンド/栄光への脱出
TTITLE3=・フェスティバル・シンフォニック・バンド/ララのテーマ
TTITLE4=東京佼成ウィンド・オーケストラ/踊り明かそう
TTITLE5=東京佼成ウィンド・オーケストラ/サウンド・オブ・ミュージック・メドレー
TTITLE6=東京佼成ウィンド・オーケストラ/ピンク・パンサーのテーマ
TTITLE7=・フェスティバル・シンフォニック・バンド/輝く星座(アクエリアス)
TTITLE8=東京アンサンブル・アカデミー/パピヨンのテーマ
TTITLE9=東京佼成ウィンド・オーケストラ/ベンジーのテーマ
TTITLE10=東京佼成ウィンド・オーケストラ/ディズニー・メト゜レー
TTITLE11=東京佼成ウィンド・オーケストラ/ボルサリーノ
TTITLE12=東京佼成ウィンド・オーケストラ/ウエストサイド物語メドレー
TTITLE13=東京佼成ウィンド・オーケストラ/追憶のテーマ
EXTD=
EXTT0=
EXTT1=
EXTT2=
EXTT3=
EXTT4=
EXTT5=
EXTT6=
EXTT7=
EXTT8=
EXTT9=
EXTT10=
EXTT11=
EXTT12=
EXTT13=
PLAYORDER=
